<svg xmlns="http://www.w3.org/2000/svg" viewBox="0 0 980 958.85"><defs><style>.cls-1{fill:#343481;stroke:#343481;stroke-linecap:round;stroke-linejoin:round;stroke-width:0;}</style></defs><title>github</title><g id="Layer_2" data-name="Layer 2"><g id="Layer_1-2" data-name="Layer 1"><path class="cls-1" d="M977.11,438.49c-8.48-81.07-35.3-155.66-81.36-222.82Q791.74,64,613.75,16A468.22,468.22,0,0,0,447.8,2.11q-197.16,18.42-328,167.3C59.43,238.21,22,318.47,6.94,408.84,4,426.54,2.85,444.55.86,462.41c-.22,2-.57,3.9-.86,5.84v44c1,10.08,1.8,20.16,2.86,30.23C9.71,607.54,28.58,669,60.56,726c62.06,110.7,153,187.66,273.25,228.55,49.35,16.78,94.59-17.59,94.32-66.73-.24-42.32-.56-84.65-.25-127a79.14,79.14,0,0,1,4.62-25.33c2.17-6.14,6.49-12.07,11.24-16.66,14.37-13.87,29.42-27,44.53-40.78l33.47,28.59c3.16,2.71,6.09,5.76,9.51,8.09,15.14,10.36,20.26,25.81,20.6,42.84.66,33.49.34,67,.5,100.48.06,12.66-.31,25.37.61,38,2.49,34,30.4,60.61,64.51,62.15a83.7,83.7,0,0,0,31.92-4.48c162.35-56.72,282.22-191.37,319.26-359a460.42,460.42,0,0,0,10.51-79.14,47.15,47.15,0,0,1,.84-5.37v-39C979,460.33,978.25,449.39,977.11,438.49ZM496,645.41c-8.19.66-16.58-.31-24.81-1.21-25.65-2.8-51.32-5.56-76.89-9-21.33-2.91-42.08-8.34-61.81-17.25-31.2-14.1-53.12-36.95-64.49-69.27a218.19,218.19,0,0,1-9.87-108.29C261.83,417,273,397.1,289,379.84c5.33-5.75,10.46-11.69,16-17.17,3-2.95,3-5.41,1.61-9.17-4.65-12.26-9.43-24.53-12.91-37.15-2.83-10.27-2.34-21.05-1-33,9.14,4.42,17.65,7.88,25.5,12.47,16.38,9.56,32.49,19.6,48.52,29.73A10.71,10.71,0,0,0,376,327c21.2-5,42.27-10.86,63.74-14.25a323.77,323.77,0,0,1,108,1.19c19.12,3.43,37.94,8.58,56.83,13.18,3.19.77,5.56.53,8.27-1.37,21.72-15.21,44.28-29,68.66-39.6,1.65-.72,3.31-1.4,5.41-2.28C689,300.36,688,316,682.3,331.08q-4.37,11.69-9.31,23.15c-1.36,3.15-1.24,5.31,1.36,7.88,5.45,5.38,10.44,11.22,15.7,16.8q33.13,35.18,34.25,83.48c.56,25.77-1.63,51.23-8.83,76.12-13,45-43.08,72.64-86.94,86.63-24.26,7.73-49.27,11.31-74.45,14.06C534.71,641.32,515.38,643.85,496,645.41ZM687.88,885.6c-17.83,8.86-36.56,16-55.18,23.14-5,1.92-11.23,1.86-16.65,1-9.79-1.47-15.82-9.76-16-20.65-.19-12.5-.07-25-.07-37.5q0-42,0-84c0-18.65-2.53-36.84-10-54.14A82.7,82.7,0,0,0,570.92,686c16.14-2.93,32.08-5.36,47.8-8.8,26.53-5.79,51.69-15.25,74.48-30.33,30.23-20,51.34-47.34,63.39-81.31A266.18,266.18,0,0,0,769,433.1c-4.9-30.83-18.76-57.71-39.14-81.31-1.28-1.48-2.57-4.25-2.05-5.81,11.33-33.86,9.46-67.54-.79-101.18-.44-1.44-.9-2.86-1.39-4.28-3.75-11-4.49-11.67-16.38-11.05-18.66,1-35.87,7.43-52.27,15.63-17.54,8.77-34.57,18.6-51.58,28.38-3.66,2.11-6.65,2.67-10.63,1.6a411.35,411.35,0,0,0-210.9.27,9.38,9.38,0,0,1-8.33-1.26c-24.77-15.76-50.3-30.09-78.36-39.25-11.57-3.78-23.36-6.7-35.8-4.82-3.07.47-4.54,1.72-5.57,4.63-13,36.68-16.18,73.62-3.73,111.16.51,1.52-.36,4.17-1.51,5.48a168.55,168.55,0,0,0-40.22,84c-3.65,21.19-3,42.51-1.26,63.8,2.21,26.54,7.62,52.35,18.38,76.86,20.24,46.11,55.68,75.4,102.33,92.19,23,8.28,46.76,13.07,70.93,16.11,2.48.31,4.94.69,7.57,1.06-.23.62-.26,1.17-.56,1.47-14.83,14.63-22.33,32.85-25.73,53-.59,3.5-1.9,5.46-5.32,6.8-22,8.59-44.48,12.9-67.91,7.09-24.25-6-41.55-21.37-53.84-42.41-11.77-20.17-27.61-35.33-49.54-43.7-10.33-4-20.87-6.9-32.17-4.53-9.26,1.94-11.26,6.67-5,13.87,4,4.6,8.49,9.25,13.71,12.21a78.64,78.64,0,0,1,29,28.34,327.91,327.91,0,0,1,20.93,40.17c10,23.54,27.61,37.84,51.27,45.51,26.37,8.55,53.41,8.55,80.62,5.56,5.27-.58,10.5-1.46,16.23-2.27,0,2.52,0,4.83,0,7.14.16,23.83-.15,47.68.61,71.49.72,22.73-17.18,29.43-33.5,23.79Q227.76,867.6,147.57,769.94C97.42,708.71,66.18,638.78,53.25,560.69c-25.73-155.41,35.9-316,158.83-414.63C268,101.17,330.76,70,401.26,56.93,555.65,28.38,690.53,68.29,803.05,178.14c66.26,64.7,106.28,144.22,122.64,235.39C960,604.9,862.34,798.94,687.88,885.6Z"/></g></g></svg>