<svg xmlns="http://www.w3.org/2000/svg" viewBox="0 0 980.93 980.93"><defs><style>.cls-1,.cls-3{fill:none;}.cls-2{fill:#343481;stroke-width:10px;}.cls-2,.cls-3{stroke:#343481;stroke-miterlimit:10;}.cls-3{stroke-width:50px;}</style></defs><title>linkedin</title><g id="Layer_2" data-name="Layer 2"><g id="Layer_1-2" data-name="Layer 1"><path class="cls-1" d="M858,172.85C842.76,120.75,795.52,80,735.74,79.6q-123.51-.72-247-1.33v.48c-35,0-70.11-.09-105.17,0s-70.38.29-105.57.71c-16.47.2-33.14-.44-49.38,1.86-61.15,8.66-107.79,63-108.95,126.38q-1.15,62.17-1.11,124.39.27,191.24,1.09,382.48a120.5,120.5,0,0,0,14.59,57.93c24,43.9,60.28,68.6,109.53,70.21,48.76,1.59,97.58,1.59,146.37,1.59q154.25.06,308.49-.71c19.07-.08,38.36.15,57.16-2.57,60.42-8.75,106.78-63,107.74-125.58q1.39-89.46,1.38-179-.18-164.37-1.49-328.75A129.94,129.94,0,0,0,858,172.85ZM361.22,745.94c0,3.44-1.31,5.51-3.51,7.93-4.58,5.07-9.76,6.42-16.4,6.33-43.16-.6-86.33-.75-129.49-1.05-5,0-10.55-5.87-10.55-11.09q0-97.51,0-195V360.5c0-8.4,5.88-14.84,14.22-15,16.49-.35,33-.65,49.48-.65,25.43,0,50.86.1,76.28.58,4.48.08,9.15,1.67,13.3,3.55s5.94,5.73,6,10.69c.2,33.42.85,66.84.86,100.26Q361.45,602.93,361.22,745.94ZM359.16,276.7c-7.4,32.21-29.27,50.9-60.41,57.42-27.53,5.76-52.72-.29-74-19.83-37.17-34.13-33.95-105.69,24.67-128.82a87.39,87.39,0,0,1,14.87-4.81c4.95-1,10.12-.8,15.18-1.13,19.12-.22,37,3.89,52.07,16.55C356.49,217.13,366.55,244.56,359.16,276.7Zm413,482.44c-45.63.33-91.26.68-136.89.79-2.2,0-4.43-2.15-6.58-3.42-5.81-3.41-6.8-8.68-6.82-15.25-.28-75.45-.86-150.9-1.36-226.35-.11-15.72-12.93-32-27.9-35.46-22.68-5.25-40.33,4.23-48.45,26.14a22.65,22.65,0,0,0-1.37,7.39q-1.35,90.74-2.52,181.47-.35,26-.3,52c0,2.93-1.14,4.74-3,6.9-4.89,5.72-10.68,6.92-17.88,6.81-42.74-.62-85.49-.75-128.24-1-5.34,0-12.34-7.22-12.34-12.66V359.81c0-6.08,8.49-14.19,15.31-14.38,7.7-.22,15.4-.23,23.1-.22q52.79,0,105.57.07c8.32,0,15.15,5.77,16.92,14.34.7,3.42,1.32,6.85,2,10.49,7.84-4.19,15-8.27,22.4-11.92,21.86-10.82,45.25-13.41,69.09-12.59,29.75,1,57.38,9.42,82,26.91,28.94,20.54,46.86,49.12,58,83,6.38,19.44,8.4,39.28,8.45,59.51q.32,117,.53,234C781.92,753,776.08,759.11,772.15,759.14Z"/><path class="cls-1" d="M303.72,216.93c-12.63-5.72-26.08-6.38-39.79-2.25-30.3,9.13-41.58,47.3-21,71.83,10.05,12,23.22,16.41,36.29,16.79,10.3,0,18.52-1.57,26.13-5.46,16.48-8.43,24.1-22.67,23.65-41.12S320.11,224.35,303.72,216.93Z"/><path class="cls-2" d="M354.54,349c-4.15-1.88-8.82-3.47-13.3-3.55-25.42-.48-50.85-.58-76.28-.58-16.49,0-33,.3-49.48.65-8.34.17-14.22,6.61-14.22,15V553q0,97.53,0,195c0,5.22,5.54,11.05,10.55,11.09,43.16.3,86.33.45,129.49,1.05,6.64.09,11.82-1.26,16.4-6.33,2.2-2.42,3.51-4.49,3.51-7.93q0-143,.15-286c0-33.42-.66-66.84-.86-100.26C360.48,354.7,358.67,350.83,354.54,349ZM329.86,727.39H232.52V378.88h97.34Z"/><path class="cls-2" d="M772.93,455.49c-11.12-33.86-29-62.44-58-83-24.65-17.49-52.28-25.91-82-26.91-23.84-.82-47.23,1.77-69.09,12.59-7.38,3.65-14.56,7.73-22.4,11.92-.69-3.64-1.31-7.07-2-10.49-1.77-8.57-8.6-14.33-16.92-14.34q-52.78,0-105.57-.07c-7.7,0-15.4,0-23.1.22-6.82.19-15.31,8.3-15.31,14.38V746.5c0,5.44,7,12.61,12.34,12.66,42.75.29,85.5.42,128.24,1,7.2.11,13-1.09,17.88-6.81,1.84-2.16,3-4,3-6.9q0-26,.3-52,1.17-90.72,2.52-181.47a22.65,22.65,0,0,1,1.37-7.39c8.12-21.91,25.77-31.39,48.45-26.14,15,3.47,27.79,19.74,27.9,35.46.5,75.45,1.08,150.9,1.36,226.35,0,6.57,1,11.84,6.82,15.25,2.15,1.27,4.38,3.43,6.58,3.42,45.63-.11,91.26-.46,136.89-.79,3.93,0,9.77-6.12,9.76-10.18q-.24-117-.53-234C781.33,494.77,779.31,474.93,772.93,455.49ZM751.1,727.38H653v-5.45q-.35-98.16-.72-196.3c-.06-12.25-.43-24.44-5-36.16-11.47-29.29-38-45.72-69.69-44.14-32.63,1.63-52.55,19.53-64.1,49.52A85.24,85.24,0,0,0,508,526.08c0,65.71-.42,131.43-.7,197.14v4.09h-96V378.82H507c.35,11.89,1.15,23.55.9,35.2-.17,8,5.54,10.53,10.52,13.42a11.6,11.6,0,0,0,14.85-2c5.08-5.15,9.88-10.6,14.88-15.83,18.59-19.41,41.27-29.16,67.66-30.64,25.06-1.39,49.07,2.26,71.29,14.8,26.89,15.17,43.31,39,53.65,68.09,6.57,18.49,8.65,37.53,8.85,56.88q1,102.81,1.64,205.61C751.26,725.16,751.17,726,751.1,727.38Z"/><path class="cls-2" d="M331.54,196.08c-15-12.66-33-16.77-52.07-16.55-5.06.33-10.23.15-15.18,1.13a87.39,87.39,0,0,0-14.87,4.81c-58.62,23.13-61.84,94.69-24.67,128.82,21.28,19.54,46.47,25.59,74,19.83,31.14-6.52,53-25.21,60.41-57.42S356.49,217.13,331.54,196.08ZM305.39,297.84c-7.61,3.89-15.83,5.43-26.13,5.46-13.07-.38-26.24-4.82-36.29-16.79-20.62-24.53-9.34-62.7,21-71.83,13.71-4.13,27.16-3.47,39.79,2.25,16.39,7.42,24.87,21.48,25.32,39.79S321.87,289.41,305.39,297.84Z"/><circle class="cls-3" cx="490.46" cy="490.46" r="465.46"/></g></g></svg>